<svg width="151" height="24" viewBox="0 0 151 24" fill="none" xmlns="http://www.w3.org/2000/svg">
<path d="M38.5223 10.3185C38.5223 11.6178 38.3694 12.8408 38.0637 13.9873C37.758 15.1338 37.3758 16.2038 36.8408 17.1975C36.3057 18.1911 35.6943 19.0319 34.9299 19.8726C34.1656 20.637 33.3248 21.3249 32.4076 21.8599C31.4904 22.3949 30.4204 22.8535 29.3503 23.1592C28.2802 23.465 27.0573 23.6178 25.8344 23.6178H17.5032L20.4076 0.229309H28.7388C30.2675 0.229309 31.5669 0.458608 32.7898 0.99364C34.0127 1.52867 35.0064 2.21657 35.8471 3.13377C36.6879 4.05096 37.3758 5.12103 37.758 6.34396C38.293 7.49045 38.5223 8.86625 38.5223 10.3185ZM33.707 10.4713C33.707 9.47772 33.5541 8.56052 33.3248 7.71975C33.0955 6.87899 32.7134 6.19109 32.2548 5.65606C31.7962 5.0446 31.2611 4.66243 30.5732 4.3567C29.8853 4.05097 29.121 3.8981 28.2802 3.8981H22.7006C22.7006 3.8981 24.535 5.12103 24.3822 6.11466C23.9236 9.70702 22.7006 20.0255 22.7006 20.0255C22.7006 20.0255 25.3758 20.0255 26.293 20.0255C27.4395 20.0255 28.4331 19.7962 29.3503 19.3376C30.2675 18.879 31.0318 18.2675 31.7197 17.4268C32.4076 16.586 32.8662 15.5924 33.2484 14.4459C33.5541 13.2229 33.707 11.9236 33.707 10.4713Z" fill="white"/>
<path d="M53.8853 3.82165C51.4395 3.82165 47.5414 3.82165 47.5414 3.82165L46.7771 10.0127H53.8089L53.3503 13.5287H46.3185C46.3185 13.5287 45.9363 16.3567 45.7834 18.1146C45.707 19.1083 43.7197 19.949 43.7197 19.949H54.6497C54.6497 19.949 54.1911 23.6178 51.5923 23.6178C46.9299 23.6178 40.4331 23.6178 40.4331 23.6178L43.3376 0.229297H57.0955C57.0955 0.152864 56.6369 3.82165 53.8853 3.82165Z" fill="white"/>
<path d="M58.7771 0.152863H62.5223C62.9045 0.152863 63.2867 0.229296 63.516 0.458595C63.7453 0.687894 63.8981 0.917194 63.9745 1.22293L66.8026 15.0573C66.9554 15.5159 66.9554 15.6688 67.1083 16.2038C67.3376 17.1974 66.6497 18.6497 66.4968 19.949C67.1847 18.7261 67.9491 17.1974 68.1784 16.6624C68.4077 16.1274 68.637 15.5924 68.8663 15.0573L74.9809 1.22293C75.1338 0.993627 75.2867 0.764328 75.5924 0.535028C75.8981 0.305729 76.2803 0.229296 76.6625 0.229296H80.4077L68.7898 23.6178H64.5096L64.2039 22.1656L58.7771 0.152863Z" fill="white"/>
<path d="M93.7835 3.82165C90.0383 3.82165 86.7516 3.82165 86.7516 3.82165L85.9109 10.4713H93.5542C93.5542 10.4713 93.3249 14.1401 90.879 14.1401C88.2803 14.1401 84.0765 14.1401 84.0765 14.1401C84.0765 14.1401 85.4523 15.0573 85.2994 15.8217C84.9937 18.1911 84.3822 23.5414 84.3822 23.5414H79.7198L82.6242 0.152863H96.3822C96.3058 0.152863 96.0765 3.82165 93.7835 3.82165Z" fill="white"/>
<path d="M110.675 4.58599C110.522 4.81529 110.369 4.96815 110.14 5.12102C109.987 5.19745 109.758 5.27389 109.529 5.27389C109.299 5.27389 109.07 5.19745 108.841 5.04459C108.611 4.89172 108.306 4.66242 108 4.50955C107.694 4.28025 107.312 4.12739 106.93 3.97452C106.548 3.82166 106.013 3.74522 105.478 3.74522C104.943 3.74522 104.484 3.82166 104.025 3.97452C103.643 4.12739 102.497 5.27389 102.344 5.57962C102.191 5.96178 102.115 6.34395 102.115 6.80255C102.115 7.26115 102.268 7.64331 102.497 7.94904C102.726 8.25478 103.032 8.56051 103.49 8.78981C103.873 9.01911 104.331 9.24841 104.866 9.40127C105.401 9.55414 105.936 9.78344 106.471 10.0127C107.006 10.242 107.541 10.4713 108.076 10.7771C108.611 11.0828 109.07 11.3885 109.452 11.8471C109.834 12.2293 110.217 12.7643 110.446 13.3758C110.675 13.9873 110.828 14.6752 110.828 15.5159C110.828 16.6624 110.599 17.7325 110.217 18.8025C109.834 19.7962 109.223 20.7134 108.459 21.4777C107.694 22.242 106.777 22.8535 105.707 23.3121C104.637 23.7707 103.414 24 102.115 24C101.427 24 100.739 23.9236 100.051 23.7707C99.3631 23.6178 98.7516 23.3885 98.1401 23.1592C97.5287 22.8535 96.9936 22.5478 96.4586 22.1656C95.9236 21.7834 95.465 21.4013 95.1592 20.9427L96.8408 18.7261C96.9936 18.5732 97.1465 18.4204 97.2994 18.3439C97.5287 18.2675 97.6815 18.1911 97.9108 18.1911C98.2166 18.1911 98.4459 18.2675 98.7516 18.4968C99.0573 18.7261 99.3631 18.9554 99.6688 19.1847C100.051 19.414 100.433 19.7197 100.892 19.8726C101.35 20.1019 101.962 20.1783 102.65 20.1783C103.72 20.1783 104.637 19.8726 105.248 19.2611C105.86 18.6497 106.166 17.7325 106.166 16.586C106.166 16.051 106.013 15.6688 105.783 15.2866C105.554 14.9045 105.248 14.6752 104.79 14.4459C104.408 14.2166 103.949 13.9873 103.414 13.8344C102.879 13.6815 102.344 13.4522 101.809 13.2994C101.274 13.0701 100.739 12.8408 100.204 12.6115C99.6688 12.3822 99.2102 12 98.828 11.6178C98.4459 11.2357 98.1401 10.7006 97.8344 10.0892C97.6051 9.47771 97.4522 8.71338 97.4522 7.87261C97.4522 6.87898 97.6051 5.88535 97.9873 4.89172C98.3694 3.97452 98.9045 3.13376 99.5924 2.36943C100.28 1.6051 101.197 1.07006 102.191 0.611465C103.185 0.152866 104.331 0 105.631 0C106.242 0 106.93 0.0764331 107.541 0.229299C108.153 0.382166 108.688 0.535032 109.223 0.764331C109.758 0.993631 110.217 1.29936 110.675 1.6051C111.134 1.91083 111.516 2.29299 111.822 2.67516L110.675 4.58599Z" fill="white"/>
<path d="M126.344 0.152863H121.529L110.293 23.8471H113.962C114.344 23.8471 114.65 23.6178 114.955 23.3885C115.261 23.1592 115.49 22.8535 115.567 22.6242L117.554 18.0382L118.93 14.6752L122.14 7.33758C122.293 6.95541 122.522 6.49681 122.752 5.96178C122.981 5.42675 123.21 4.89172 123.44 4.28025C123.516 4.89172 123.592 5.42675 123.745 5.96178C123.822 6.49681 123.898 6.87898 123.975 7.26114L125.35 14.5987L125.962 17.8853L126.803 22.4713C126.879 22.7771 127.032 23.1592 127.261 23.3121C127.49 23.465 127.796 23.6943 128.178 23.6943H131.771L126.344 0.152863Z" fill="white"/>
<path d="M0.305732 10.3949L15.9745 2.67517L15.5159 6.57326C15.5159 6.87899 15.3631 7.10829 15.2102 7.33759C15.0573 7.56689 14.7516 7.79619 14.4459 7.94906L8.94268 10.7006C8.63694 10.8535 8.25478 11.0064 7.87261 11.1592C7.49045 11.3121 7.10828 11.3885 6.72611 11.465C7.10828 11.5414 7.49045 11.6943 7.79618 11.7707C8.10191 11.8471 8.40764 12 8.71338 12.1529L13.6051 14.9809C14.1401 15.2866 14.3694 15.6688 14.3694 16.1274C14.3694 16.2038 14.3694 16.2803 14.3694 16.3567L13.758 20.3312L0 12.6115L0.305732 10.3949Z" fill="white"/>
<path d="M150.344 12.6115L136.586 20.3312L136.051 16.4331C136.051 16.3567 136.051 16.2802 136.051 16.2038C136.051 15.7452 136.28 15.3631 136.815 15.0573L141.707 12.2293C142.013 12.0764 142.318 11.9236 142.624 11.8471C142.93 11.7707 143.312 11.6178 143.694 11.5414C143.312 11.465 142.93 11.3121 142.548 11.2357C142.166 11.0828 141.86 11.0064 141.478 10.7771L135.975 8.02547C135.592 7.87261 135.363 7.64331 135.21 7.41401C135.057 7.18471 134.904 6.95541 134.904 6.64968L134.446 2.75159L150.115 10.4713L150.344 12.6115Z" fill="white"/>
</svg>
