<?xml version="1.0" encoding="utf-8"?>
<!-- Generator: Adobe Illustrator 21.0.0, SVG Export Plug-In . SVG Version: 6.00 Build 0)  -->
<svg version="1.1" id="Layer_1" xmlns="http://www.w3.org/2000/svg" xmlns:xlink="http://www.w3.org/1999/xlink" x="0px" y="0px"
	 viewBox="0 0 196.7 31.3" style="enable-background:new 0 0 196.7 31.3;" xml:space="preserve">
<style type="text/css">
	.st0{fill:#7E7E7E;}
	.st1{fill:url(#SVGID_1_);}
	.st2{fill:url(#SVGID_2_);}
	.st3{fill:url(#SVGID_3_);}
	.st4{fill:url(#SVGID_4_);}
	.st5{fill:url(#SVGID_5_);}
	.st6{fill:url(#SVGID_6_);}
	.st7{fill:url(#SVGID_7_);}
	.st8{fill:url(#SVGID_8_);}
	.st9{fill:url(#SVGID_9_);}
	.st10{fill:url(#SVGID_10_);}
	.st11{fill:url(#SVGID_11_);}
	.st12{fill:url(#SVGID_12_);}
	.st13{fill:url(#SVGID_13_);}
	.st14{fill:url(#SVGID_14_);}
	.st15{fill:url(#SVGID_15_);}
	.st16{fill:url(#SVGID_16_);}
	.st17{fill:url(#SVGID_17_);}
</style>
<g>
	<g>
		<path class="st0" d="M50.4,13.6c0,1.7-0.2,3.3-0.6,4.8c-0.4,1.5-0.9,2.9-1.6,4.2c-0.7,1.3-1.5,2.4-2.5,3.5c-1,1-2.1,1.9-3.3,2.6
			c-1.2,0.7-2.6,1.3-4,1.7c-1.4,0.4-3,0.6-4.6,0.6H22.9l3.8-30.6h10.9c2,0,3.7,0.3,5.3,1c1.6,0.7,2.9,1.6,4,2.8
			c1.1,1.2,2,2.6,2.5,4.2C50.1,9.9,50.4,11.7,50.4,13.6z M44.1,13.8c0-1.3-0.2-2.5-0.5-3.6s-0.8-2-1.4-2.7c-0.6-0.8-1.3-1.3-2.2-1.7
			c-0.9-0.4-1.9-0.6-3-0.6h-7.3c0,0,2.4,1.6,2.2,2.9c-0.6,4.7-2.2,18.2-2.2,18.2s3.5,0,4.7,0c1.5,0,2.8-0.3,4-0.9
			c1.2-0.6,2.2-1.4,3.1-2.5s1.5-2.4,2-3.9C43.9,17.4,44.1,15.7,44.1,13.8z"/>
		<path class="st0" d="M70.5,5.1c-3.2,0-8.3,0-8.3,0l-1,8.1h9.2l-0.6,4.6h-9.2c0,0-0.5,3.7-0.7,6c-0.1,1.3-2.7,2.4-2.7,2.4h14.3
			c0,0-0.6,4.8-4,4.8c-6.1,0-14.6,0-14.6,0l3.8-30.6h18C74.7,0.3,74.1,5.1,70.5,5.1z"/>
		<path class="st0" d="M76.9,0.3h4.9c0.5,0,1,0.1,1.3,0.4c0.3,0.3,0.5,0.6,0.6,1l3.7,18.1c0.2,0.6,0.2,0.8,0.4,1.5
			c0.3,1.3-0.6,3.2-0.8,4.9c0.9-1.6,1.9-3.6,2.2-4.3c0.3-0.7,0.6-1.4,0.9-2.1l8-18.1c0.2-0.3,0.4-0.6,0.8-0.9
			c0.4-0.3,0.9-0.4,1.4-0.4h4.9L90,31h-5.6L84,29.1L76.9,0.3z"/>
		<path class="st0" d="M122.7,5.1c-4.9,0-9.2,0-9.2,0l-1.1,8.7h10c0,0-0.3,4.8-3.5,4.8c-3.4,0-8.9,0-8.9,0s1.8,1.2,1.6,2.2
			c-0.4,3.1-1.2,10.1-1.2,10.1h-6.1l3.8-30.6h18C126,0.3,125.7,5.1,122.7,5.1z"/>
		<path class="st0" d="M144.8,6.1c-0.2,0.3-0.4,0.5-0.7,0.7c-0.2,0.1-0.5,0.2-0.8,0.2c-0.3,0-0.6-0.1-0.9-0.3
			c-0.3-0.2-0.7-0.5-1.1-0.7c-0.4-0.3-0.9-0.5-1.4-0.7c-0.5-0.2-1.2-0.3-1.9-0.3c-0.7,0-1.3,0.1-1.9,0.3c-0.5,0.2-2,1.7-2.2,2.1
			c-0.2,0.5-0.3,1-0.3,1.6c0,0.6,0.2,1.1,0.5,1.5c0.3,0.4,0.7,0.8,1.3,1.1c0.5,0.3,1.1,0.6,1.8,0.8c0.7,0.2,1.4,0.5,2.1,0.8
			c0.7,0.3,1.4,0.6,2.1,1c0.7,0.4,1.3,0.8,1.8,1.4c0.5,0.5,1,1.2,1.3,2c0.3,0.8,0.5,1.7,0.5,2.8c0,1.5-0.3,2.9-0.8,4.3
			c-0.5,1.3-1.3,2.5-2.3,3.5c-1,1-2.2,1.8-3.6,2.4c-1.4,0.6-3,0.9-4.7,0.9c-0.9,0-1.8-0.1-2.7-0.3c-0.9-0.2-1.7-0.5-2.5-0.8
			c-0.8-0.4-1.5-0.8-2.2-1.3c-0.7-0.5-1.3-1-1.7-1.6l2.2-2.9c0.2-0.2,0.4-0.4,0.6-0.5c0.3-0.1,0.5-0.2,0.8-0.2
			c0.4,0,0.7,0.1,1.1,0.4c0.4,0.3,0.8,0.6,1.2,0.9c0.5,0.3,1,0.7,1.6,0.9c0.6,0.3,1.4,0.4,2.3,0.4c1.4,0,2.6-0.4,3.4-1.2
			c0.8-0.8,1.2-2,1.2-3.5c0-0.7-0.2-1.2-0.5-1.7s-0.7-0.8-1.3-1.1c-0.5-0.3-1.1-0.6-1.8-0.8c-0.7-0.2-1.4-0.5-2.1-0.7
			c-0.7-0.3-1.4-0.6-2.1-0.9c-0.7-0.3-1.3-0.8-1.8-1.3c-0.5-0.5-0.9-1.2-1.3-2c-0.3-0.8-0.5-1.8-0.5-2.9c0-1.3,0.2-2.6,0.7-3.9
			c0.5-1.2,1.2-2.3,2.1-3.3c0.9-1,2.1-1.7,3.4-2.3c1.3-0.6,2.8-0.8,4.5-0.8c0.8,0,1.7,0.1,2.5,0.3c0.8,0.2,1.5,0.4,2.2,0.7
			c0.7,0.3,1.3,0.7,1.9,1.1c0.6,0.4,1.1,0.9,1.5,1.4L144.8,6.1z"/>
		<g>
			<path class="st0" d="M165.3,0.3h-6.3l-14.7,31h4.8c0.5,0,0.9-0.3,1.3-0.6c0.4-0.3,0.7-0.7,0.8-1l2.6-6l1.8-4.4l4.2-9.6
				c0.2-0.5,0.5-1.1,0.8-1.8c0.3-0.7,0.6-1.4,0.9-2.2c0.1,0.8,0.2,1.5,0.4,2.2c0.1,0.7,0.2,1.2,0.3,1.7l1.8,9.6l0.8,4.3l1.1,6
				c0.1,0.4,0.3,0.9,0.6,1.1s0.7,0.5,1.2,0.5h4.7L165.3,0.3z"/>
		</g>
	</g>
	<g>
		<path class="st0" d="M0.4,13.7L20.9,3.6l-0.6,5.1c0,0.4-0.2,0.7-0.4,1c-0.2,0.3-0.6,0.6-1,0.8l-7.2,3.6c-0.4,0.2-0.9,0.4-1.4,0.6
			c-0.5,0.2-1,0.3-1.5,0.4c0.5,0.1,1,0.3,1.4,0.4c0.4,0.1,0.8,0.3,1.2,0.5l6.4,3.7c0.7,0.4,1,0.9,1,1.5c0,0.1,0,0.2,0,0.3L18,26.7
			L0,16.6L0.4,13.7z"/>
	</g>
	<g>
		<path class="st0" d="M196.7,16.6l-18,10.1l-0.7-5.1c0-0.1,0-0.2,0-0.3c0-0.6,0.3-1.1,1-1.5l6.4-3.7c0.4-0.2,0.8-0.4,1.2-0.5
			c0.4-0.1,0.9-0.3,1.4-0.4c-0.5-0.1-1-0.3-1.5-0.4c-0.5-0.2-0.9-0.3-1.4-0.6l-7.2-3.6c-0.5-0.2-0.8-0.5-1-0.8
			c-0.2-0.3-0.4-0.6-0.4-1l-0.6-5.1l20.5,10.1L196.7,16.6z"/>
	</g>
</g>
</svg>
